<?xml version="1.0" standalone="no"?>
<!DOCTYPE svg PUBLIC "-//W3C//DTD SVG 20010904//EN"
 "http://www.w3.org/TR/2001/REC-SVG-20010904/DTD/svg10.dtd">
<svg version="1.0" xmlns="http://www.w3.org/2000/svg"
 width="288.000000pt" height="275.000000pt" viewBox="0 0 288.000000 275.000000"
 preserveAspectRatio="xMidYMid meet">

<g transform="translate(0.000000,275.000000) scale(0.100000,-0.100000)"
fill="#000000" stroke="none">
<path d="M1365 2725 c-100 -29 -1250 -494 -1281 -518 -68 -55 -65 -16 -62
-829 l3 -733 23 -33 c27 -37 59 -55 232 -128 69 -28 190 -80 269 -114 79 -34
147 -58 151 -53 4 4 26 57 50 117 32 79 41 113 33 124 -5 9 -79 46 -164 84
-231 102 -302 140 -316 168 -10 19 -13 154 -13 552 0 496 1 528 18 537 13 7
38 0 97 -29 256 -124 399 -190 416 -190 10 0 59 37 109 83 114 104 116 117 23
159 -36 16 -114 52 -172 80 -58 27 -116 54 -129 59 -53 21 -21 41 203 131 121
48 229 92 240 97 46 21 96 42 205 85 114 46 116 47 220 44 l105 -2 123 73 c67
41 122 78 122 82 0 4 -10 11 -22 15 -13 3 -43 16 -68 26 -25 11 -59 27 -77 34
-85 38 -212 82 -248 87 -22 4 -62 0 -90 -8z"/>
<path d="M2141 2442 c-11 -21 -51 -163 -58 -208 -3 -18 0 -34 9 -41 7 -5 108
-47 223 -93 125 -49 221 -93 238 -108 l27 -26 0 -555 c0 -526 -1 -558 -19
-587 -10 -17 -34 -38 -52 -47 -36 -16 -416 -169 -483 -194 -22 -8 -59 -23 -82
-34 -24 -10 -46 -19 -49 -19 -3 0 -25 -9 -48 -19 -23 -11 -78 -33 -122 -51
-44 -17 -96 -38 -115 -47 -19 -8 -44 -19 -55 -23 -11 -4 -42 -18 -68 -29 -26
-12 -71 -26 -100 -32 -29 -6 -61 -13 -72 -15 -11 -2 -40 -23 -65 -47 -25 -23
-68 -61 -95 -84 -61 -52 -60 -53 85 -113 91 -38 115 -43 180 -44 70 0 85 4
225 63 175 74 335 140 530 221 649 268 631 259 666 335 17 38 19 81 19 740 0
433 -4 714 -10 736 -19 69 -56 90 -400 223 -124 48 -234 91 -245 96 -45 19
-55 19 -64 2z"/>
<path d="M1599 2093 c-463 -453 -929 -923 -929 -938 0 -30 39 -35 277 -35 186
0 243 -3 258 -14 18 -13 17 -18 -24 -122 -24 -60 -49 -123 -57 -141 -8 -17
-14 -34 -14 -38 0 -3 -11 -31 -25 -61 -14 -30 -25 -59 -25 -64 0 -6 -4 -18 -9
-28 -19 -34 -161 -402 -161 -416 0 -40 31 -19 143 95 165 170 582 593 873 889
132 135 243 253 247 262 4 13 -2 23 -19 35 -23 14 -53 15 -282 10 -145 -3
-264 -2 -272 3 -12 8 -12 14 -1 47 14 38 150 362 176 418 7 17 32 77 55 134
22 57 47 116 54 130 23 45 30 91 13 91 -8 0 -133 -116 -278 -257z"/>
</g>
</svg>
